<svg height="500" viewBox="0 0 132.29167 132.29167" width="500" xmlns="http://www.w3.org/2000/svg"><g transform="translate(0 -164.70832)"><circle cx="66.145836" cy="230.85416" fill="none" r="53.578125" stroke="#00c0c4" stroke-linecap="round" stroke-linejoin="round" stroke-width="19.84375"/><path d="m5.896059 232.70855c.2216833-.10413 11.921008-5.23545 25.998493-11.40287l25.595434-11.2135 2.417241-.0864c1.329484-.0474 7.31442-.24666 13.29987-.44195l10.882617-.35514 21.542636 7.9777c14.50086 5.36997 21.4617 8.00819 21.295 8.07097-.13617.051-27.212337 1.7635-60.169215 3.80485-32.956884 2.04136-60.2238975 3.73957-60.593369 3.77384-.6623678.0611-.6661272.0592-.268707-.12705z" fill="#fff" stroke="#fff" stroke-linecap="round" stroke-linejoin="round" stroke-width="2.645834"/><path d="m1.3230438 233.17508 129.6455862-8.08675-2.67653 18.58905-12.64325 1.71883-.28502-5.22808-5.5254-5.25516h-10.746667l-5.700812 5.70404-.637631 5.15941-59.043684.21875v-5.37816l-5.700813-5.70404-11.352245.31227-5.095225 5.39177-.129893 6.01493-9.5002178-1.99619z" fill="#00c0c4"/><g stroke="#005d75" stroke-linecap="round" stroke-opacity=".990818"><path d="m128.2921 243.67738 2.67653-18.58905-46.679636-17.2865-27.0806.89269-55.8853502 24.48056.9971538 11.97262 9.2411554.84747" fill="none" opacity=".98" stroke-linejoin="round" stroke-miterlimit="17.669155" stroke-width="2.646098"/><path d="m33.709636 245.99517v-5.37816l-5.700813-5.70404h-5.373327m-11.074143 11.0822v-5.37816l5.700815-5.70404h5.373328" fill="none" opacity=".98" stroke-miterlimit="16.045454" stroke-width="2.646"/><path d="m115.53924 245.99517v-5.37816l-5.70081-5.70404h-5.37335m-11.074129 11.0822v-5.37816l5.700812-5.70404h5.373317" fill="none" opacity=".98" stroke-miterlimit="16.045454" stroke-width="2.646"/><path d="m33.709636 245.99517h59.681316" fill="none" opacity=".98" stroke-linejoin="round" stroke-miterlimit="17.669155" stroke-width="2.646098"/><ellipse cx="22.63549" cy="245.84073" fill="#fff" opacity=".98" rx="8.061203" ry="8.065756" stroke-linejoin="round" stroke-miterlimit="17.669155" stroke-width="2.646098"/><ellipse cx="104.4651" cy="245.84073" fill="#fff" opacity=".98" rx="8.061203" ry="8.065756" stroke-linejoin="round" stroke-miterlimit="17.669155" stroke-width="2.646098"/><path d="m128.2921 243.67738-12.75286 2.31779" fill="none" opacity=".98" stroke-miterlimit="16.045454" stroke-width="2.646"/><path d="m62.158583 231.42408 1.542917-.0811" fill="none" stroke-linejoin="round" stroke-miterlimit="17.939772" stroke-width="2.646098"/><path d="m81.88107 230.38241 1.542915-.0812" fill="none" stroke-linejoin="round" stroke-miterlimit="17.939772" stroke-width="2.646098"/><ellipse cx="22.63549" cy="245.84073" fill="#00c0c4" opacity=".98" rx="4.275098" ry="4.277514" stroke-linejoin="round" stroke-miterlimit="17.669155" stroke-width="2.646098"/><ellipse cx="104.4651" cy="245.84073" fill="#00c0c4" opacity=".98" rx="4.275098" ry="4.277514" stroke-linejoin="round" stroke-miterlimit="17.669155" stroke-width="2.646098"/></g><path d="m11.561353 245.99517v-17.11554l-9.6750552 4.16733.7389437 12.36748z" fill="none"/><path d="m83.409399 211.91582-24.226641.72992-28.24412 12.37063 52.599245-2.52842z" style="fill:#00c0c4;stroke:#005d75;stroke-width:2.646098;stroke-linecap:round;stroke-linejoin:round;stroke-miterlimit:17.669155;stroke-opacity:.990818"/></g></svg>