<svg height="500" viewBox="0 0 132.29167 132.29167" width="500" xmlns="http://www.w3.org/2000/svg"><g transform="translate(0 -164.70832)"><path d="m25.778691 256.89735c.825-.38742 44.364371-19.47291 96.754159-42.4122l95.25416-41.70781 8.99584-.32301c4.94771-.17765 27.22084-.91738 49.49584-1.64384l40.5-1.32084 80.17157 29.67244c53.96543 19.97324 79.87033 29.78588 79.25 30.01949-.50686.19089-101.27157 6.55919-223.92157 14.15179s-224.124999 13.90905-225.499999 14.03655c-2.465021.22858-2.479012.22196-1-.47257z" fill="#fff" stroke="#fff" stroke-linecap="round" stroke-linejoin="round" stroke-width="10" transform="matrix(.26458334 0 0 .26458334 0 164.70832)"/><path d="m2.317771 233.13819 127.656139-7.95817-2.63549 18.29346-12.44921 1.69151-.28063-5.14494-5.44063-5.1716h-10.581755l-5.613329 5.61333-.627844 5.07739-58.137641.21525v-5.29264l-5.613333-5.61333-11.17804.3073-5.017037 5.30603-.127901 5.91929-9.3544335-1.96444z" fill="#c2c6e6"/><g stroke="#a5a9cd" stroke-linecap="round" stroke-width="2.645833"><path d="m127.33842 243.47348 2.63549-18.29346-45.963327-17.01163-26.66504.8785-55.027772 24.0913.9818523 11.78223 9.0993477.834" fill="none" stroke-miterlimit="30.499999"/><path d="m34.207381 245.75442v-5.29264l-5.613333-5.61333h-5.290872m-10.904205 10.90597v-5.29264l5.613333-5.61333h5.290872" fill="none" stroke-miterlimit="30.499999"/><path d="m114.78128 245.75442v-5.29264l-5.61333-5.61333h-5.29088m-10.904204 10.90597v-5.29264l5.613329-5.61333h5.290875" fill="none" stroke-miterlimit="30.499999"/><path d="m34.207381 245.75442h58.765486" fill="none" stroke-miterlimit="30.499999"/><circle cx="23.303177" cy="245.60242" fill="#fff" r="7.9375" stroke-linejoin="round"/><circle cx="103.87707" cy="245.60242" fill="#fff" r="7.9375" stroke-linejoin="round"/><path d="m127.33842 243.47348-12.55714 2.28094" fill="none" stroke-miterlimit="30.499999"/><path d="m62.219772 231.41502 1.519238-.0802" fill="none"/><path d="m81.63961 230.3899 1.519238-.0802" fill="none"/><circle cx="23.303177" cy="245.60242" fill="#c2c6e6" r="4.209495" stroke-linejoin="round"/><circle cx="103.87707" cy="245.60242" fill="#c2c6e6" r="4.209495" stroke-linejoin="round"/></g><path d="m12.398971 245.75442v-16.84337l-9.5265892 4.10105.7276042 12.17083z" fill="none"/><path d="m83.144485 212.21698-23.854874.7183-27.810706 12.17393 51.79209-2.48822z" fill="#d6daff" stroke="#a5a9cd" stroke-linecap="round" stroke-miterlimit="31.2" stroke-width="2.645833"/></g></svg>