<svg height="512pt" viewBox="0 -4 512 511" width="512pt" xmlns="http://www.w3.org/2000/svg"><path d="m119.464844 495.433594v-486.398438c0-4.714844 3.824218-8.535156 8.535156-8.535156h256c4.710938 0 8.535156 3.820312 8.535156 8.535156v486.398438zm0 0" fill="#3d324c"/><path d="m153.601562 34.632812h204.796876v460.800782h-204.796876zm0 0" fill="#c03a2b"/><path d="m324.265625 290.632812v34.132813h-136.53125v-230.398437c12.179687.144531 23.625-5.820313 30.480469-15.890626 8.808594-11.945312 22.949218-18.773437 37.785156-18.242187 14.828125-.527344 28.960938 6.300781 37.769531 18.242187 6.859375 10.078126 18.308594 16.042969 30.496094 15.890626zm0 0" fill="#802f34"/><path d="m196.265625 358.898438h119.46875c4.710937 0 8.53125 3.820312 8.53125 8.535156v85.332031c0 4.714844-3.820313 8.535156-8.53125 8.535156h-119.46875c-4.710937 0-8.53125-3.820312-8.53125-8.535156v-85.332031c0-4.714844 3.820313-8.535156 8.53125-8.535156zm0 0" fill="#802f34"/><path d="m315.734375 230.898438c-14.140625 0-25.601563 11.464843-25.601563 25.601562 0 4.710938-3.820312 8.535156-8.53125 8.535156-4.714843 0-8.535156 3.820313-8.535156 8.53125 0 4.714844 3.820313 8.535156 8.535156 8.535156 14.136719 0 25.597657-11.464843 25.597657-25.601562 0-4.710938 3.820312-8.535156 8.535156-8.535156 4.710937 0 8.53125 3.824218 8.53125 8.535156s3.820313 8.535156 8.535156 8.535156c4.710938 0 8.53125-3.824218 8.53125-8.535156 0-14.136719-11.460937-25.601562-25.597656-25.601562zm0 0" fill="#f0c419"/><path d="m503.464844 503.964844h-494.929688c-4.714844 0-8.535156-3.820313-8.535156-8.53125 0-4.714844 3.820312-8.535156 8.535156-8.535156h494.929688c4.714844 0 8.535156 3.820312 8.535156 8.535156 0 4.710937-3.820312 8.53125-8.535156 8.53125zm0 0" fill="#2c3e50"/></svg>