<svg enable-background="new -17.8511 -33.5592 1659.8511 1966.4678" viewBox="-17.8511 -33.5592 1659.8511 1966.4678" xmlns="http://www.w3.org/2000/svg"><path d="m1406.98 10.56c44.63-1.91 89.3301-2.99 134.01-1.78 16.85.87 33.84 1.37 50.42 4.81 4.71 1.15 9.75 2.25 13.5399 5.47 2.28 1.81 2.12 5.14.6901 7.42-3.23 5.42-8.73 8.91-14.05 12.01-9.36 5.02-18.97 9.58-28.85 13.48-21.0599 7.55-41.78 15.98-62.79 23.64-41.6799 15.26-83.6899 29.57-125.37 44.81-40.48 14.74-80.85 29.98-119.89 48.23-35.12 16.7-69.71 34.95-101.34 57.7-17.08 12.02-33.35 25.16-48.87 39.11-5.1699 3.78-8.99 9.07-14.0699 12.96-4.11 3.18-7.54 7.12-11.24 10.75-3.13 3.19-6.5701 6.11-9.3201 9.65-4.11 5.53-9.7899 9.64-13.88 15.19-12.36 13.42-23.77 27.69-34.67 42.32-11.3 16.44-23.03 33.18-28.68 52.56-2.25 6.85-2.94 14.94 1.41 21.14 5.5699 7.17 14.12 11.01 22.1299 14.78 20.2601 8.99 41.17 16.42 61.9901 24 24.65 8.86 49.4199 17.39 74.22 25.86 17.02 5.85 34.1901 11.36 50.89 18.1 14.97 6.06 29.54 13.56 41.99 23.97 11.4 9.61 21.13 21.04 30.02 32.98 13.36 17.9301 24.98 37.0601 37.4199 55.63 7.7301 11.8 16.1901 23.32 21.5801 36.45 3.25 7.87 4.59 16.87 1.89 25.1-3.35 10.8-10.7001 19.8-18.7001 27.56-14.24 14.79-31.88 25.57-48.26 37.73-4.76 3.82-10.2899 7.39-12.73 13.24-2.02 4.85.72 9.88 3.17 14.01 5.2999 8.15 12.15 15.12 18.46 22.48 22.6801 25.29 44.61 51.43 62.9 80.14 19.85 30.81 39.0699 62.64 65.71 88.23 35.0701 33.6 77.3 58.57 120.37 80.47-16.4299-6.9-32.47-14.72-48.63-22.24-21.51-10.44-43.1799-20.72-63.4199-33.51-17.6-10.91-33.92-23.84-48.5-38.53-25.78-26.2-46.05-57.07-66.6801-87.31-19.09-28.75-39.1699-57.01-62.74-82.28-3.83-3.81-8.04-7.28-11.26-11.64-3.8099-5.25-9.5699-8.48-13.89-13.22-4.48-4.8101-9.6-9.04-13.47-14.38-3.91-4.79-8.3199-9.63-9.71-15.83-.9501-5.19 3.5399-9.06 7.37-11.68 8.1799-5.31 17.12-9.32 25.3199-14.62 14.39-9.2 28.05-19.83 39.37-32.68 6.35-7.36 12.11-16.6801 10.4401-26.83-1.61-8.62-7.41-15.79-13.6901-21.6-7.1-7.74-15.8099-13.77-24.63-19.36-18.38-11.23-39.21-19.46-60.95-20.09-7.6901.4-15.6 1.78-22.3 5.77-8.6 5.52-13.11 15.31-15.13 25.03-2.71 10.55-2.1499 21.51-2.0499 32.3.88 13.4 3.61 26.6 4.8099 39.97.16 4.79-.87 10.3799-5.11 13.27-3.41 2.69-8.26 1.17-11.47-1.1-9.98-7.81-15.47-19.67-20.05-31.16-7.24-18.32-12.5-37.36-16.73-56.57-2.89-13.3199-5.02-26.86-5.28-40.5.5-8.05 1.9401-16.6 7.24-23 5.63-6.81 13.7201-10.91 21.67-14.4 12.4-5.26 25.64-8.29 38.92-10.29 6.76-1.15 13.64-1 20.47-1.1201 9.37.05 18.75 0 28.12.48-17.13-6.35-34.84-10.96-52.2-16.62-20.42-6.22-40.66-13.02-60.74-20.26-26-9.4-51.5-20.16-77.6201-29.26-24.51-9.01-49.85-16.11-75.82-19.36-19.79-2.39-39.68-3.92-59.6-4.52-8.68-1.36-17.53-.11-26.18-1.65-10.16-.6-20.57-.97-30.27-4.32 2.7-2.8 6.64-3.54 10.14-4.88 15.49-5.29 30.35-12.65 43.43-22.54 20.51-15.47 35.84-36.43 51.23-56.72 20.28-27.21 40.3-54.72 63.22-79.8 21.1-22.94 43.9-44.37 68.64-63.34 18.3-13.97 37.62-26.87 58.7001-36.28 14.75-6.59 30.76-10.56 46.96-10.64 19.77-.43 39.22 4.32 58.99 4.05 15.5-.03 30.65-4.11 45.12-9.38 19.12-6.97 37.54-15.67 56.13-23.91 21.23-9.52 42.66-18.66 64.61-26.41 37.83-13.36 76.5701-23.87 115.25-34.45 16.89-4.7 33.9-9.14 50.4401-15.03 6.83-2.7 13.73-5.7 19.46-10.4-6.62-3.94-14.6-3.97-22.05-4.2-11.2799-1.2-22.7-1.06-33.98.01-8.24.41-16.52-.24-24.74.58-4.73.72-9.52.56-14.28.62-5.01-.04-9.9299 1.15-14.9299.98-6.0601-.19-12.02 1.21-18.0701 1.04-38.7 2.74-77.39 5.76-115.98 9.99-42.71 4.55-85.39 9.74-127.6799 17.39-48.4 8.81-96.5901 20.93-141.4701 41.46-52.84 24.12-100.15 59.04-142.4399 98.57-5.71 4.6-10.53 10.16-15.78 15.25-5.56 5.77-11.68 11.03-16.67 17.32-23.78 25.21-45.59 52.36-64.94 81.15-16.01 24.68-32.08 50.23-38.73 79.26-2.93 11.23-4.1 23.8-12.08 32.86-4.43 5.33-11.83 5.95-18.27 6.32-16.51-.15-32.45-5.53-48.94-5.83-29.76-.66-58.57 8.14-87.94 11.46-4.19.32-8.63.74-12.57-1.06 2.38-4.43 6.85-7.04 10.86-9.81 13.35-8.75 27.31-16.9 38.7-28.24 11.99-11.57 21-25.85 28.3-40.74 9.79-20.11 16.85-41.43 22.81-62.95 5.69-21.07 10.51-42.39 13.93-63.95 2.4-15.65 4.4-31.49 3.23-47.34-1.23-7.43-2.84-15.45-8.33-21-3.21-3.54-7.65-5.65-12.11-7.15-8.82-2.46-17.85-4.13-26.93-5.31-7.46-.58-15.27-.62-22.21 2.54-6.36 3-10.74 8.98-13.41 15.32-7.25 16.79-9.63 35.08-13.34 52.85-5.34 27.76-10.95 55.46-16.0699 83.26-3.2 19.03-8.02 37.73-11.97 56.62-7.5 34.16-16.47 68.29-31.56 99.98-8.23 15.93-16.32 31.97-26.03 47.06-16.58 26.21-34.87 51.4-55.38 74.69-7.19 7.48-14.6 14.75-21.99 22.05-7.7 7.01-16.02 13.32-23.6 20.45-10.91 8.99-20.04 20.26-26.21 33-9.44 18.65-14.82 39.66-13.72 60.64.9 17.71 7.36 34.82 16.86 49.68 9.67 15.27 22.63 27.99 34.29 41.69 8.56 10.03 16.53 21.03 20.26 33.85 6.27 20.3199 3.46 41.93-.27 62.4399-4.87 24.7401-11.9 49-18.75 73.25-7.98 27.01-17.35 53.73-29.9 79-8.98 18.4501-18.86 36.4501-28.3 54.67-8.11 15.96-16.02 32.39-19.02 50.1899-1.98 11.11-1.33 23.2301 4.28 33.25 4.57 8.2301 13.13 13.2001 21.69 16.41 9.46 3.52 19.83 3.38 29.63 1.5601 15.24-2.8301 29.64-8.8601 43.76-15.0701 22.11-9.89 43.65-20.98 65.4-31.6 6.8-3.28 13.61-6.55 20.62-9.35 4.28-1.66 8.71-3.42 13.39-3.1901.72 2.65-1.31 4.8101-2.83 6.7201-4.1 4.5499-8.58 8.7699-13.3 12.6899-16.47 14.04-33.95 26.84-51.54 39.4301-15 10.8899-30.54 21.2899-43.89 34.22-12.74 13.12-19.95 30.2999-25.48 47.45-1.86 5.41-3.26 10.99-5.65 16.2101-1.05 1.86-2.23 4.4099-4.75 4.33-4.9-4.09-6.15-10.7001-8.58-16.29-3.34-9.7-7.67-19-11.56-28.48-5.57-10.17-9.84-21.03-16.12-30.8-3.61-5.3099-6.75-11.2699-12.24-14.8999-2.05-1.4301-4.78-.9801-6.95-.12-2.99 2.95-4.34 7.09-5.12 11.13-1.98 8.0299-2.98 16.2699-3.02 24.5399-1.22 20.74 3.1 41.74 12.63 60.22 7.66 15.55 17.92 29.63 28.73 43.1201 12.91 15.95 26.95 30.99 41.9 45.0499 12.77 11.74 26.08 23.11 41.11 31.88 13.26 7.8 28.16 12.88 43.53 14.16 24.65 1.87 49.26-2.3 73.23-7.6901 60.74-13.6499 117.68-39.85 177.92-55.26 40.98-10.87 83.25-15.26 125.0099-21.9399 24.7401-3.99 49.51-8.62 73.22-16.89 32.25-11.1 61.8-29.1899 87.59-51.39 25.77-22.2 48.89-47.33 70.37-73.66 16.9301-20.6899 32.48-42.46 47.3201-64.6799 3.1699-4.34 5.65-9.38 10.11-12.6-.0601 6.1799-3.02 11.77-5.47 17.2799-9.05 18.7401-20.9401 35.9401-33.24 52.6801-21.55 28.84-45.1101 56.13-69.79 82.3-10.38 10.9399-21.39 21.25-31.9401 32.0199-14.62 12.77-29.27 25.6801-45.5099 36.42-25.36 17.95-54.14 30.0601-82.42 42.53-16.42 7.66-33.06 16.14-45.6 29.54-8.67 7.8799-14.44 18.2999-19.31 28.83-7.52 17.99-9.93 37.72-9.28 57.11.61 26.01 5.92 51.66 11.82 76.9301 11.11 46.0399 25.6899 91.12 39.61 136.36 12.56 41.1899 25.61 82.5399 31.5 125.3199.8 5.77.83 11.65.42 17.47-1.15-.0299-2.28-.13-3.39-.2999-2.43-2.8201-4.1-6.16-5.75-9.4401-9.89-19.1599-17.43-39.4099-25.54-59.35-29.37-72.9399-55.91-147.17-89.69-218.25-7.95-17.6-17.16-34.59-26.66-51.38-13.76-23.9299-29.27-46.91-47.3101-67.83-4.3199-4.36-8.89-8.4601-13.06-12.97-4.61-5.2201-10.48-9.0701-16.33-12.7301-7.46-4.34-16.41-6.62-25-5-11.01 1.6001-21.66 5.01-32.22 8.42 8.67 13.88 21.47 24.48 32.2 36.7 12.43 13.75 24.49 28.63 30.68 46.3601 6.32 18.2999 4.85 38.3099.14 56.8099-4.96 20.59-13.19 40.17-21.22 59.7-5.02 12.0901-10.98 23.7301-16.27 35.7001-3.5 7.48-7.78 14.5599-11.73 21.8199-3.59 5.86-6.93 12.28-12.77 16.26-.73-1.7999-1.6-3.5699-1.21-5.5399.96-8.8 3.18-17.41 5.05-26.04 5.71-25.0801 11.35-50.3101 13.21-76.01 2.26-26.45-1.59-53.15-9.25-78.49-5.91-20.64-14.29-40.46-22.94-60.0701-3.07-6.7799-5.91-13.6599-7.91-20.83-5.16 1.3199-10.33 2.67-15.4 4.3 6.88 16.9199 17.95 31.6699 25.67 48.1799 9.76 20.34 14.71 42.66 17.36 64.97 1.61 12.5701 1.25 25.28 1.1201 37.9401-1.09 21.5599-7.1 42.45-13.1201 63.0699-10.42 33.26-15.9 67.91-18.3199 102.61-1.52 11.29-.69 23.02-4.28 33.9501-2.68-2.16-3.33-5.64-4.11-8.78-4.83-22.64-4.62-45.89-4.2-68.92 2.24-42.22 13.78-83.5299 13.8-125.9299-.94-49.1-15.58-96.4301-28.41-143.42-4.32.6-8.58 1.5801-12.82 2.5801 4.58 11.5299 7.92 23.49 11.82 35.26 11.19 35.95 19.68 73.72 15.7 111.5499-1.39 22.99-6.59 45.52-9.6801 68.3101-2.59 17.7899-5.02 35.6899-4.52 53.71-.74 22.62 3.67 45.01 9.11 66.87 3.19 13.2 6.74 26.3199 10.46 39.38 2.54 9.59 5.53 19.17 5.99 29.16.14-1.76.12-3.48.38-5.17 1.18 1.73-.37 4.15-.63 6.09-2.8-.3999-4.17-3.45-5.74-5.46-11.32-18.08-20.26-37.53-28.54-57.15-14.95-37.09-27.72-75.64-31.02-115.72-1.48-12.27-1.08-24.66-1.17-37-.23-48.72 11.59-96.47 14.1-145.01.19-13.97-1.77-28.28-7.32-41.1799-6.05-.1801-12.01 1.2999-18.06 1.0499-22.97.6-46.75-3.3099-66.7-15.24-8.72-4.95-15.97-11.88-22.84-19.08-14.11-13.13-22.7-31.04-36.93-44.0701-5.12-4.5599-9.18-10.22-14.76-14.26-5.48-4.21-10.52-8.98-16.25-12.85-6.29-4.79-10.3-11.67-15.17-17.75-10.21-15.0499-16.38-32.49-20.53-50.09-5.42-22.41-8.03-45.48-7.68-68.52-.62-42.8199 10.54-85.26 29.18-123.62 10.49-22.02 22.7-43.15 34.68-64.37 10.63-19.34 22.62-38.79 26.04-60.97 1.99-18.46-1.85-36.82-5.02-54.92-2.45-12.52-4.67-25.1-7.11-37.61-20.62.83-41.26.04-61.89-.01-21.81-1.13-43.59-2.78-65.29-5.42-46.67-5.48-93.16-12.54-139.34-21.21-19.19-3.75-38.23-8.42-56.79-14.61-19.08-6.62-38.13-14.36-54.43-26.52-7.16-5.99-14.33-12.94-16.85-22.23-2.34-7.75.12-16.61 6.14-22.02 7.6-6.98 17.61-10.39 27.17-13.74 24.41-7.94 49.47-13.79 73.64-22.49 15.58-5.33 30.3-12.9 44.01-21.98 13.64-9.07 27.89-17.45 43.55-22.51 41.86-14.01 86.09-19.15 127.99-33.04 15.94-5.16 31.22-12.42 45.18-21.71 3.06-2.13 6.59-4.01 8.39-7.44 16.55-30.82 41.3-55.96 63.81-82.37 25.43-29.18 48.89-60.24 67.93-94 28.82-50.57 45.47-106.84 60.06-162.86 4.36-17.32 9-34.66 11.2-52.41-.04-7.23 1.42-15.21-2.47-21.73-3.66-5.69-10.69-7.13-16.96-7.6-23-1.92-46.1899-2.16-68.96-6.26-6.08-1.2-12.33-3.05-17.03-7.28-1.81-1.54-3.16-4.32-1.4-6.41 3.27-4.5 8.88-6.27 13.82-8.28 16.39-5.83 33.36-9.83 49.92-15.14 21.48-6.65 42-15.92 62.95-24 19.18-7.42 38.89-13.52 59.02-17.74 9.79-1.97 19.73-3.72 29.76-3.56 5.4.21 11.61 1.35 14.86 6.17 3.76 5.89 3.4901 13.19 4.3701 19.88 1.24 39.84-4.05 79.49-9.8 118.84-2.79 20.08-5.89 40.11-8.49 60.2-1.95 14.08-3.42 28.33-2.19 42.53.83 4.11 3.59 10.15 8.7 9.03 3.9-2.58 6.05-6.94 8.17-10.95 5-10.24 8.95-20.95 13.55-31.37 13.17-30.93 29.45-60.61 49.27-87.8 22.67-31.17 49.01-59.54 77.19-85.79 29.48-27.11 61.35-51.8 95.95-72.06 43.38-25.55 90.8099-43.73 139.48-56.27 47.97-12.39 97.02-20.02 146.2001-25.64 54.3699-6.1598 109.0097-9.6998 163.6698-12.1498m-1071.66 678.09c-22.5 4.41-44.93 9.33-66.88 16-9.28 2.97-18.6 6.05-27.16 10.77-8.63 4.86-16.43 11.07-25.23 15.63-8.27 4.41-16.88 8.17-25.64 11.49-37.7 14.44-76.84 24.69-114.81 38.34-3.9 1.42-7.89 2.89-10.86 5.91 5.89 1.87 12.11 1.65 18.21 1.97 9.73-.07 19.47-.07 29.2-.54-2.27-.81-4.82.26-6.96-.9 10.65 1.43 21.28-.74 31.83-2.08 24.9-3.68 48.72-12.01 72.57-19.73 20.92-6.79 42.22-12.36 63.72-16.99 20.19-4.28 40.53-8.08 61.12-9.8 12.04-.73 24.61-.97 35.97 3.71 3.99 1.55 7.34 4.25 10.75 6.76-4.73-23.14-6.97-47.51-.44-70.53-14.71 4.98-30.23 6.86-45.39 9.99z"/><path d="m850.19 712.21c13.72-8.18 29.95-11.26 45.79-10.63 20.93.79 41.57 4.88 61.9 9.66 14.39 3.54 28.78 7.2 42.77 12.1 5.9 2.27 12.18 4.6299 16.45 9.52 2.83 3.12 3.14 7.83 1.59 11.62-3.02 7.75-9.51 13.28-15.32 18.94-12.33 10.68-26.4 19.45-41.59 25.46-12.44 4.91-26.07 7.59-39.4301 5.91-17.16-1.5-33.22-8.32-48.84-15.12-12.55-5.53-25.61-10.69-39.44-11.55-14.11-1.29-27.64 3.68-41.35 6.02-2.29.53-4.66 0-6.42-1.56.5-3.83 3.19-6.85 5.52-9.74 8.47-9.84 18.09-18.6 27.76-27.22 9.7201-8.39 19.4601-16.94 30.6101-23.41z"/></svg>