<svg height="500" viewBox="0 0 132.29167 132.29167" width="500" xmlns="http://www.w3.org/2000/svg"><g transform="translate(0 -164.70832)"><path d="m205.04335 459.96521c-.48091-9.21098-1.19656-17.77641-1.59035-19.03428-.96595-3.08556-3.73452-5.13759-6.93155-5.13759-1.99786 0-5.55797 1.70147-15.53698 7.4255-7.1199 4.08402-12.79352 7.02735-12.60806 6.54074.18547-.48662 3.57767-12.81719 7.53822-27.40126 3.96056-14.58408 7.36816-27.08448 7.57246-27.77867.25534-.86767 2.87108 3.01723 8.36884 12.42941 15.45106 26.45223 20.72494 34.63182 24.71383 38.33023 18.87399 17.49954 48.11607 16.81731 65.53087-1.52885 3.53205-3.72095 17.27325-25.15439 31.07909-48.477l2.3938-4.0439 7.96523 29.14619c4.38088 16.03041 7.97172 29.35698 7.97966 29.61459.008.25762-5.76172-2.84481-12.82146-6.89429-14.721-8.44399-16.24689-8.82692-20.04377-5.03004-2.67974 2.67975-2.69037 2.7469-3.93468 24.87821-.41506 7.38225-.81343 13.47031-.88527 13.529-.0718.0587-5.06229-3.98677-11.08991-8.98994s-11.85121-9.46611-12.94132-9.91765c-1.51176-.62619-2.64919-.62108-4.79407.0215-2.52793.75739-3.39946 1.73033-8.62544 9.62915-3.19735 4.83265-5.99151 8.79462-6.20923 8.80438-.21773.01-2.73179-3.40288-5.5868-7.58365-6.62948-9.70795-7.52205-10.66604-10.448-11.21495-3.393-.63653-4.85403.20606-15.21853 8.77666-5.0315 4.16065-10.01534 8.25982-11.07519 9.10927l-1.927 1.54445-.87439-16.74725z" fill="#fff" stroke="#867c56" stroke-linecap="round" stroke-linejoin="round" stroke-width="10" transform="matrix(.26458334 0 0 .26458334 0 164.70832)"/><path d="m33.926435 219.80387c-5.435339-1.38121-9.978852-4.40278-12.598992-8.37869-1.239173-1.88038-2.293788-4.68482-3.713921-9.87609-2.645868-9.67192-2.833231-11.18703-1.855416-15.00381 1.15614-4.51286 3.04474-7.65371 6.604516-10.98371 7.884183-7.37527 21.272218-10.14489 29.770689-6.15876 4.700792 2.20487 10.050435 6.79642 17.821159 15.29575 9.034455 9.88155 14.90366 15.43164 20.01982 18.93133 3.16448 2.16465 3.924615 2.89586 3.230205 3.1073-.49946.15207-11.37061 3.22338-24.15811 6.82511-20.110328 5.66429-23.857678 6.57713-27.75 6.75975-2.95658.13871-5.484342-.039-7.36995-.51818z" fill="#fff" stroke="#867c56" stroke-linecap="round" stroke-linejoin="round" stroke-width="10" transform="matrix(.26458334 0 0 .26458334 0 164.70832)"/><path d="m242.29639 442.07058c-5.4469-1.18179-11.85469-4.62137-15.59417-8.37066-2.88705-2.89462-21.06432-33.13745-35.40198-58.90083-20.0079-35.95224-32.97041-63.95745-37.95458-82-6.06417-21.95213-9.59198-48.64168-10.21615-77.28991l-.33312-15.28991-1.3664-1.79045c-.8214-1.07631-2.26276-2.13277-3.61372-2.64871-2.07442-.79223-2.48862-.79842-5.3836-.0806-11.36567 2.81833-20.73616 2.20724-28.84299-1.88096-5.257917-2.65152-9.371046-5.96251-15.792818-12.71294-3.299737-3.4686-9.182529-9.51045-13.072871-13.42632l-7.073348-7.11977 1.822871-.48172c1.002579-.26495 18.585371-4.66358 39.072876-9.77474 20.4875-5.11115 37.628-9.4069 38.09-9.54609.69169-.20841 1.23721.9648 3.08955 6.64449 4.18567 12.83423 7.69945 28.17915 9.63564 42.07943.90976 6.53141 1.63953 8.26669 4.30784 10.24334 3.03242 2.24639 8.53448.84944 10.6028-2.69201.96036-1.64436 1.11789-3.84768.63109-8.82682-.0845-.86399 4.29934-5.01907 20.87596-19.78672l20.98289-18.69306 1.76711 1.20752c1.44527.98759 2.2308 1.17012 4.31293 1.00215 4.30465-.34727 7.20419-3.32746 7.20419-7.40457 0-1.76316-1.97005-9.81039-3.45346-14.10667l-.99268-2.875h24.22307c13.32269 0 24.22307.12319 24.22307.27375s-.81017 3.01931-1.80038 6.375-1.91204 7.56375-2.0485 9.35125c-.21615 2.83117-.0956 3.47552.93534 5 1.66253 2.4584 4.0864 3.60511 7.07578 3.34751 1.32977-.11459 3.00271-.64872 3.72807-1.19028l1.31582-.9824 21.02193 18.73111c11.56207 10.30211 21.01725 18.86902 21.01153 19.03758-.006.16857-.18552 1.71157-.39954 3.42891-.65992 5.29533 1.80081 9.03707 6.53107 9.93104 1.9834.37483 5.86225-1.41257 7.2654-3.34795.63184-.87151 1.2616-3.48555 1.92731-8 2.26243-15.34244 6.98115-35.27502 10.77177-45.50157.98956-2.66969 1.47972-3.4244 2.1024-3.23713.4466.13432 18.0245 4.53138 39.062 9.77125 21.0375 5.23986 38.63942 9.69238 39.11538 9.89448.71083.30183.26437.89304-2.5 3.31055-1.85096 1.61871-6.82735 6.67761-11.05864 11.24201-13.60946 14.68088-19.84207 19.31787-29.05674 21.61791-4.36819 1.09033-13.33211.87601-19.66435-.47015l-5.41436-1.15103-2.30966 1.15908c-4.4098 2.21302-4.31648 1.81885-4.6925 19.81972-.54665 26.16949-3.05771 47.18048-8.18677 68.50166-2.36104 9.8147-3.86581 14.5853-7.34305 23.27972-10.65927 26.65229-35.25724 71.22623-64.1235 116.19808-7.26261 11.3147-10.32649 14.05503-19.25457 17.22129-3.11682 1.10535-12.39266 1.64096-15.76124.9101zm16.00429-8.45398c2.44512-1.11079 4.92993-3.84566 5.74904-6.32761.33506-1.01523.51318-3.17319.39584-4.79547-.28012-3.87263-2.16125-6.62605-5.83981-8.54774-2.48254-1.2969-3.08921-1.39634-8.49146-1.3918-5.0659.004-6.14104.15727-8.3179 1.18382-4.28267 2.01961-6.32143 5.27077-6.32143 10.08062 0 4.26554 2.61626 8.22035 6.57143 9.93352 2.68872 1.16462 13.59262 1.07383 16.25429-.13534zm60.93138-159.90229c8.31901-2.22179 15.20161-4.35112 17.00259-5.26025 3.89999-1.96871 8.78108-6.67076 10.73997-10.34601 3.01913-5.66446 3.88534-12.72533 2.30531-18.79148-2.19555-8.4293-9.10647-15.44584-17.69929-17.96979-5.67498-1.66689-9.82545-1.18144-25.28425 2.95732-16.08429 4.30623-19.7182 5.83169-23.87603 10.02281-4.95682 4.99651-7.35753 10.8635-7.36804 18.00643-.0219 14.85216 12.43293 26.57045 26.97352 25.37851 1.7762-.1456 9.519-1.94449 17.20622-3.99754zm-113.45645 2.56919c16.00567-4.16895 23.88917-21.7622 16.42539-36.65583-2.11858-4.22756-6.78364-8.7187-11.21407-10.79603-5.45886-2.55953-31.11369-9.28255-35.42194-9.28255-6.93046 0-13.03283 2.53954-18.02208 7.5-5.31576 5.28509-7.49652 10.60931-7.49652 18.30238 0 9.48423 5.22929 18.00994 13.66374 22.27703 2.34494 1.18634 21.33029 6.67824 30.64159 8.86371 3.06806.7201 8.21923.62599 11.42389-.20871z" fill="#fff" stroke="#fff" stroke-linecap="round" stroke-linejoin="round" stroke-width="10" transform="matrix(.26458334 0 0 .26458334 0 164.70832)"/><path d="m454.7169 220.02815c-2.78617-.55117-47.22743-13.00253-48.13122-13.48519-.53711-.28684-.34737-.56744.77682-1.14878 3.63679-1.88065 11.0667-8.33484 17.46522-15.1716 14.93901-15.96222 19.19804-19.6095 25.40273-21.754 5.28216-1.82563 14.14351-.70328 21.31594 2.69981 4.15952 1.97357 9.27945 7.0124 11.25485 11.07658 2.32584 4.78515 2.31881 9.29191-.0281 18.05412-1.03121 3.85-2.41994 8.09255-3.08605 9.42788-3.8992 7.81663-14.79911 12.31327-24.97016 10.30118z" fill="#fff" stroke="#867c56" stroke-linecap="round" stroke-linejoin="round" stroke-width="10" transform="matrix(.26458334 0 0 .26458334 0 164.70832)"/><path d="m47.847927 263.87581-6.646806 24.33604 10.731876-6.19605.746512 13.00002 8.878559-7.33353 4.587767 6.80525 4.587768-6.77689 8.878559 7.33352.746512-13.00001 10.731876 6.19605-6.646806-24.33604" fill="none" stroke="#867c56" stroke-linecap="round" stroke-linejoin="round" stroke-width="3.96875"/><path d="m2.4918357 208.49837a10.914063 7.7721353 0 0 1 -2.87821387 8.99298 10.914063 7.7721353 0 0 1 -12.91467483.70231l5.7884202-6.58898z" fill="#f2ecb9" transform="matrix(.96592583 -.25881905 .25881905 .96592583 0 0)"/><path d="m8.87793 207.32592c11.627272-3.11551 11.584219 15.18086 26.918291 11.07211m87.620429-11.07211c-11.62727-3.11551-11.58422 15.18086-26.918293 11.07211m0 0 22.562553 6.33848c4.58005 1.28667 9.14605-.95487 10.2036-4.9017l.82175-3.06682c1.05755-3.94683-1.77126-8.18959-6.38572-9.3468l-43.813323-10.98743m-22.024628 83.74894s-15.889258-25.17151-19.21356-37.28954c-3.324302-12.11804-2.852808-24.49513-2.852808-24.49513m16.611142-21.96427h27.479854m16.61114 21.96427s.579731 12.33927-2.852806 24.49513c-3.432537 12.15585-19.973719 37.28954-19.973719 37.28954m-37.875611-61.78467-22.562554 6.33848c-4.580041 1.28666-9.1460451-.95487-10.2035953-4.9017l-.8217504-3.06683c-1.0575502-3.94683 1.7712663-8.18959 6.3857207-9.3468l43.813321-10.98742" fill="none" stroke="#867c56" stroke-linecap="round" stroke-miterlimit="5.766666" stroke-width="3.96875"/><path d="m73.671833 280.18272a10.31875 10.31875 0 0 1 -7.904621 3.68599 10.31875 10.31875 0 0 1 -7.904622-3.68599" style="fill:none;stroke:#867c56;stroke-width:3.96875;stroke-linecap:round;stroke-linejoin:round;stroke-miterlimit:19.9"/><path d="m-124.40459 174.33987a10.914063 7.7721353 0 0 1 -2.87821 8.99297 10.914063 7.7721353 0 0 1 -12.91468.70231l5.78842-6.58898z" fill="#f2ecb9" transform="matrix(-.96592583 -.25881905 -.25881905 .96592583 0 0)"/><g stroke="#867c56"><path d="m87.930798 215.82174c2.924803-23.32939 14.378292-32.61134 22.015332-37.02058s15.79324-2.63749 20.36151 0c-7.79009-13.49282-23.02023-14.54375-32.928554-8.82318-19.613428 11.32383-23.946408 32.94376-23.946408 32.94376" fill="#f2ecb9" stroke-linecap="round" stroke-linejoin="round" stroke-miterlimit="5.766666" stroke-width="3.96875"/><path d="m44.360863 215.82174c-2.924803-23.32939-14.378293-32.61134-22.01533-37.02058s-15.7932356-2.63749-20.3615013 0c7.7900815-13.49282 23.0202243-14.54375 32.9285443-8.82318 19.613424 11.32383 23.946412 32.94376 23.946412 32.94376" fill="#f2ecb9" stroke-linecap="round" stroke-linejoin="round" stroke-miterlimit="5.766666" stroke-width="3.96875"/><rect fill="#fff" height="10.757598" rx="5.378799" stroke-linecap="round" stroke-linejoin="round" stroke-miterlimit="30.5" stroke-width="2.645833" transform="matrix(.96592583 .25881905 -.25881905 .96592583 0 0)" width="17.40616" x="98.848183" y="204.32834"/><rect fill="#fff" height="1.499553" rx="1.194112" ry=".749777" stroke-linecap="round" stroke-linejoin="round" stroke-miterlimit="30.5" stroke-width="2.645833" transform="matrix(.96592583 .25881905 -.25881905 .96592583 0 0)" width="7.977188" x="103.58137" y="208.89375"/><rect fill="#fff" height="10.757598" rx="5.378799" stroke-linecap="round" stroke-linejoin="round" stroke-miterlimit="30.5" stroke-width="2.645833" transform="matrix(.96592583 -.25881905 .25881905 .96592583 0 0)" width="17.40616" x="11.474088" y="238.77512"/><rect fill="#fff" height="1.499553" rx="1.194112" ry=".749777" stroke-linecap="round" stroke-linejoin="round" stroke-miterlimit="30.5" stroke-width="2.645833" transform="matrix(.96592583 -.25881905 .25881905 .96592583 0 0)" width="7.977188" x="16.207268" y="243.34053"/><rect fill="#cac3a9" height="3.11678" rx="1.55839" stroke-linecap="round" stroke-linejoin="round" stroke-width="2.645833" width="5.043044" x="63.624313" y="275.24356"/><path d="m-60.601452 192.96762a10.516385 10.633239 0 0 1 -8.056019 3.79832 10.516385 10.633239 0 0 1 -8.056018-3.79832" fill="#f2ecb9" stroke-linecap="round" stroke-linejoin="round" stroke-miterlimit="5.766666" stroke-width="3.969114" transform="matrix(.82568828 -.56412664 .54821955 .83633446 0 0)"/><path d="m-79.134193 174.53597a10.316146 10.369278 0 0 1 -7.902627 3.70404 10.316146 10.369278 0 0 1 -7.902626-3.70404" fill="#f2ecb9" stroke-linecap="round" stroke-linejoin="round" stroke-miterlimit="5.766666" stroke-width="3.968873" transform="matrix(.7622374 -.64729757 .63877923 .76939008 0 0)"/><path d="m-92.502247 159.17462a9.4219103 9.4616098 0 0 1 -7.217602 3.37981 9.4219103 9.4616098 0 0 1 -7.217601-3.37981" fill="#f2ecb9" stroke-linecap="round" stroke-linejoin="round" stroke-miterlimit="5.766666" stroke-width="3.968784" transform="matrix(.71068987 -.70350545 .69931146 .7148171 0 0)"/><path d="m-116.33449 134.16607a8.7740183 8.8213043 0 0 1 -6.72129 3.15108 8.7740183 8.8213043 0 0 1 -6.72129-3.15108" fill="#f2ecb9" stroke-linecap="round" stroke-linejoin="round" stroke-miterlimit="5.766666" stroke-width="3.968799" transform="matrix(.60010644 -.79992016 .80411346 .59447586 0 0)"/><path d="m-130.09935 113.08068a8.2337532 8.2984247 0 0 1 -6.30742 2.9643 8.2337532 8.2984247 0 0 1 -6.30742-2.9643" fill="#f2ecb9" stroke-linecap="round" stroke-linejoin="round" stroke-miterlimit="5.766666" stroke-width="3.96879" transform="matrix(.51213888 -.85890265 .86213589 .50667712 0 0)"/><path d="m-148.12469 78.150677a6.8745842 6.8330283 0 0 1 -5.26624 2.440843 6.8745842 6.8330283 0 0 1 -5.26624-2.440843" fill="#f2ecb9" stroke-linecap="round" stroke-linejoin="round" stroke-miterlimit="5.766666" stroke-width="3.969107" transform="matrix(.33911436 -.94074516 .93414488 .35689402 0 0)"/><path d="m-168.66478 13.279937a4.3703785 2.1572917 0 0 1 -3.3479.770612 4.3703785 2.1572917 0 0 1 -3.3479-.770612" fill="#f2ecb9" stroke-linecap="round" stroke-linejoin="round" stroke-miterlimit="5.766666" stroke-width="3.968954" transform="matrix(-.00780929 -.99996951 .99997872 .00652413 0 0)"/><path d="m-171.26181 118.32468a10.516385 10.633239 0 0 1 -8.05602 3.79833 10.516385 10.633239 0 0 1 -8.05601-3.79833" fill="#f2ecb9" stroke-linecap="round" stroke-linejoin="round" stroke-miterlimit="5.766666" stroke-width="3.969114" transform="matrix(-.82568828 -.56412664 -.54821954 .83633447 0 0)"/><path d="m-180.92437 88.898604a10.316146 10.369278 0 0 1 -7.90263 3.704034 10.316146 10.369278 0 0 1 -7.90262-3.704035" fill="#f2ecb9" stroke-linecap="round" stroke-linejoin="round" stroke-miterlimit="5.766666" stroke-width="3.968873" transform="matrix(-.76223741 -.64729756 -.63877923 .76939008 0 0)"/><path d="m-187.06822 66.105098a9.4219112 9.4616098 0 0 1 -7.21761 3.379804 9.4219112 9.4616098 0 0 1 -7.2176-3.379804" fill="#f2ecb9" stroke-linecap="round" stroke-linejoin="round" stroke-miterlimit="5.766666" stroke-width="3.968784" transform="matrix(-.71068986 -.70350545 -.69931146 .7148171 0 0)"/><path d="m-194.98063 28.340692a8.7740183 8.8213043 0 0 1 -6.72129 3.15108 8.7740183 8.8213043 0 0 1 -6.72129-3.15108" fill="#f2ecb9" stroke-linecap="round" stroke-linejoin="round" stroke-miterlimit="5.766666" stroke-width="3.968799" transform="matrix(-.60010645 -.79992015 -.80411346 .59447585 0 0)"/><path d="m-197.12988-.54725263a8.2337532 8.2984247 0 0 1 -6.30742 2.96430013 8.2337532 8.2984247 0 0 1 -6.30742-2.96430043" fill="#f2ecb9" stroke-linecap="round" stroke-linejoin="round" stroke-miterlimit="5.766666" stroke-width="3.96879" transform="matrix(-.51213888 -.85890265 -.86213589 .50667712 0 0)"/><path d="m-195.34727-46.324458a6.8745842 6.8330283 0 0 1 -5.26624 2.440842 6.8745842 6.8330283 0 0 1 -5.26624-2.440843" fill="#f2ecb9" stroke-linecap="round" stroke-linejoin="round" stroke-miterlimit="5.766666" stroke-width="3.969107" transform="matrix(-.33911435 -.94074516 -.93414488 .35689403 0 0)"/><path d="m-169.52792-119.02129a4.3703785 2.1572914 0 0 1 -3.3479.77061 4.3703785 2.1572914 0 0 1 -3.34791-.77061" fill="#f2ecb9" stroke-linecap="round" stroke-linejoin="round" stroke-miterlimit="5.766666" stroke-width="3.968954" transform="matrix(.00780929 -.99996951 -.99997872 .00652413 0 0)"/></g></g></svg>